<?xml version="1.0" encoding="UTF-8" standalone="no"?>
<!DOCTYPE svg PUBLIC "-//W3C//DTD SVG 1.1//EN"
 "http://www.w3.org/Graphics/SVG/1.1/DTD/svg11.dtd">
<!-- Generated by graphviz version 2.36.0 (20140111.2315)
 -->
<!-- Title: controllers_diagram Pages: 1 -->
<svg width="692pt" height="742pt"
 viewBox="0.00 0.00 692.00 742.45" xmlns="http://www.w3.org/2000/svg" xmlns:xlink="http://www.w3.org/1999/xlink">
<g id="graph0" class="graph" transform="scale(1 1) rotate(0) translate(4 738.455)">
<title>controllers_diagram</title>
<polygon fill="white" stroke="none" points="-4,4 -4,-738.455 688,-738.455 688,4 -4,4"/>
<!-- _diagram_info -->
<g id="node1" class="node"><title>_diagram_info</title>
<text text-anchor="start" x="478" y="-345.6" font-family="Times,serif" font-size="13.00">Controllers diagram</text>
<text text-anchor="start" x="478" y="-331.6" font-family="Times,serif" font-size="13.00">Date: Apr 26 2014 &#45; 11:03</text>
<text text-anchor="start" x="478" y="-317.6" font-family="Times,serif" font-size="13.00">Migration version: 20140407011556</text>
<text text-anchor="start" x="478" y="-303.6" font-family="Times,serif" font-size="13.00">Generated by RailRoady 1.1.1</text>
<text text-anchor="start" x="478" y="-289.6" font-family="Times,serif" font-size="13.00">http://railroady.prestonlee.com</text>
</g>
<!-- PeopleController -->
<g id="node2" class="node"><title>PeopleController</title>
<path fill="none" stroke="black" d="M43.8982,-1.89878C43.8982,-1.89878 128.898,-1.89878 128.898,-1.89878 134.898,-1.89878 140.898,-7.89878 140.898,-13.8988 140.898,-13.8988 140.898,-202.899 140.898,-202.899 140.898,-208.899 134.898,-214.899 128.898,-214.899 128.898,-214.899 43.8982,-214.899 43.8982,-214.899 37.8982,-214.899 31.8982,-208.899 31.8982,-202.899 31.8982,-202.899 31.8982,-13.8988 31.8982,-13.8988 31.8982,-7.89878 37.8982,-1.89878 43.8982,-1.89878"/>
<text text-anchor="middle" x="86.3982" y="-199.699" font-family="Times,serif" font-size="14.00">PeopleController</text>
<polyline fill="none" stroke="black" points="31.8982,-191.899 140.898,-191.899 "/>
<text text-anchor="start" x="39.8982" y="-176.699" font-family="Times,serif" font-size="14.00">create</text>
<text text-anchor="start" x="39.8982" y="-161.699" font-family="Times,serif" font-size="14.00">destroy</text>
<text text-anchor="start" x="39.8982" y="-146.699" font-family="Times,serif" font-size="14.00">edit</text>
<text text-anchor="start" x="39.8982" y="-131.699" font-family="Times,serif" font-size="14.00">index</text>
<text text-anchor="start" x="39.8982" y="-116.699" font-family="Times,serif" font-size="14.00">new</text>
<text text-anchor="start" x="39.8982" y="-101.699" font-family="Times,serif" font-size="14.00">show</text>
<text text-anchor="start" x="39.8982" y="-86.6988" font-family="Times,serif" font-size="14.00">update</text>
<polyline fill="none" stroke="black" points="31.8982,-78.8988 140.898,-78.8988 "/>
<polyline fill="none" stroke="black" points="31.8982,-54.8988 140.898,-54.8988 "/>
<text text-anchor="start" x="39.8982" y="-39.6988" font-family="Times,serif" font-size="14.00">_layout</text>
<text text-anchor="start" x="39.8982" y="-24.6988" font-family="Times,serif" font-size="14.00">person_params</text>
<text text-anchor="start" x="39.8982" y="-9.69878" font-family="Times,serif" font-size="14.00">set_person</text>
</g>
<!-- GenresController -->
<g id="node3" class="node"><title>GenresController</title>
<path fill="none" stroke="black" d="M341.899,-0.5C341.899,-0.5 427.899,-0.5 427.899,-0.5 433.899,-0.5 439.899,-6.5 439.899,-12.5 439.899,-12.5 439.899,-201.5 439.899,-201.5 439.899,-207.5 433.899,-213.5 427.899,-213.5 427.899,-213.5 341.899,-213.5 341.899,-213.5 335.899,-213.5 329.899,-207.5 329.899,-201.5 329.899,-201.5 329.899,-12.5 329.899,-12.5 329.899,-6.5 335.899,-0.5 341.899,-0.5"/>
<text text-anchor="middle" x="384.899" y="-198.3" font-family="Times,serif" font-size="14.00">GenresController</text>
<polyline fill="none" stroke="black" points="329.899,-190.5 439.899,-190.5 "/>
<text text-anchor="start" x="337.899" y="-175.3" font-family="Times,serif" font-size="14.00">create</text>
<text text-anchor="start" x="337.899" y="-160.3" font-family="Times,serif" font-size="14.00">destroy</text>
<text text-anchor="start" x="337.899" y="-145.3" font-family="Times,serif" font-size="14.00">edit</text>
<text text-anchor="start" x="337.899" y="-130.3" font-family="Times,serif" font-size="14.00">index</text>
<text text-anchor="start" x="337.899" y="-115.3" font-family="Times,serif" font-size="14.00">new</text>
<text text-anchor="start" x="337.899" y="-100.3" font-family="Times,serif" font-size="14.00">show</text>
<text text-anchor="start" x="337.899" y="-85.3" font-family="Times,serif" font-size="14.00">update</text>
<polyline fill="none" stroke="black" points="329.899,-77.5 439.899,-77.5 "/>
<polyline fill="none" stroke="black" points="329.899,-53.5 439.899,-53.5 "/>
<text text-anchor="start" x="337.899" y="-38.3" font-family="Times,serif" font-size="14.00">_layout</text>
<text text-anchor="start" x="337.899" y="-23.3" font-family="Times,serif" font-size="14.00">genre_params</text>
<text text-anchor="start" x="337.899" y="-8.3" font-family="Times,serif" font-size="14.00">set_genre</text>
</g>
<!-- ApplicationController -->
<g id="node4" class="node"><title>ApplicationController</title>
<path fill="none" stroke="black" d="M277.061,-300.475C277.061,-300.475 389.061,-300.475 389.061,-300.475 395.061,-300.475 401.061,-306.475 401.061,-312.475 401.061,-312.475 401.061,-382.475 401.061,-382.475 401.061,-388.475 395.061,-394.475 389.061,-394.475 389.061,-394.475 277.061,-394.475 277.061,-394.475 271.061,-394.475 265.061,-388.475 265.061,-382.475 265.061,-382.475 265.061,-312.475 265.061,-312.475 265.061,-306.475 271.061,-300.475 277.061,-300.475"/>
<text text-anchor="middle" x="333.061" y="-379.275" font-family="Times,serif" font-size="14.00">ApplicationController</text>
<polyline fill="none" stroke="black" points="265.061,-371.475 401.061,-371.475 "/>
<polyline fill="none" stroke="black" points="265.061,-347.475 401.061,-347.475 "/>
<polyline fill="none" stroke="black" points="265.061,-323.475 401.061,-323.475 "/>
<text text-anchor="start" x="273.061" y="-308.275" font-family="Times,serif" font-size="14.00">_layout</text>
</g>
<!-- ApplicationController&#45;&gt;PeopleController -->
<g id="edge1" class="edge"><title>ApplicationController&#45;&gt;PeopleController</title>
<path fill="none" stroke="black" d="M284.329,-300.241C243.051,-260.233 183.915,-202.916 141.04,-161.36"/>
</g>
<!-- ApplicationController&#45;&gt;GenresController -->
<g id="edge2" class="edge"><title>ApplicationController&#45;&gt;GenresController</title>
<path fill="none" stroke="black" d="M343.241,-300.252C348.593,-275.426 355.385,-243.916 361.924,-213.581"/>
</g>
<!-- GroupsController -->
<g id="node5" class="node"><title>GroupsController</title>
<path fill="none" stroke="black" d="M60.4567,-520.955C60.4567,-520.955 148.457,-520.955 148.457,-520.955 154.457,-520.955 160.457,-526.955 160.457,-532.955 160.457,-532.955 160.457,-721.955 160.457,-721.955 160.457,-727.955 154.457,-733.955 148.457,-733.955 148.457,-733.955 60.4567,-733.955 60.4567,-733.955 54.4567,-733.955 48.4567,-727.955 48.4567,-721.955 48.4567,-721.955 48.4567,-532.955 48.4567,-532.955 48.4567,-526.955 54.4567,-520.955 60.4567,-520.955"/>
<text text-anchor="middle" x="104.457" y="-718.755" font-family="Times,serif" font-size="14.00">GroupsController</text>
<polyline fill="none" stroke="black" points="48.4567,-710.955 160.457,-710.955 "/>
<text text-anchor="start" x="56.4567" y="-695.755" font-family="Times,serif" font-size="14.00">create</text>
<text text-anchor="start" x="56.4567" y="-680.755" font-family="Times,serif" font-size="14.00">destroy</text>
<text text-anchor="start" x="56.4567" y="-665.755" font-family="Times,serif" font-size="14.00">edit</text>
<text text-anchor="start" x="56.4567" y="-650.755" font-family="Times,serif" font-size="14.00">index</text>
<text text-anchor="start" x="56.4567" y="-635.755" font-family="Times,serif" font-size="14.00">new</text>
<text text-anchor="start" x="56.4567" y="-620.755" font-family="Times,serif" font-size="14.00">show</text>
<text text-anchor="start" x="56.4567" y="-605.755" font-family="Times,serif" font-size="14.00">update</text>
<polyline fill="none" stroke="black" points="48.4567,-597.955 160.457,-597.955 "/>
<polyline fill="none" stroke="black" points="48.4567,-573.955 160.457,-573.955 "/>
<text text-anchor="start" x="56.4567" y="-558.755" font-family="Times,serif" font-size="14.00">_layout</text>
<text text-anchor="start" x="56.4567" y="-543.755" font-family="Times,serif" font-size="14.00">group_params</text>
<text text-anchor="start" x="56.4567" y="-528.755" font-family="Times,serif" font-size="14.00">set_group</text>
</g>
<!-- ApplicationController&#45;&gt;GroupsController -->
<g id="edge3" class="edge"><title>ApplicationController&#45;&gt;GroupsController</title>
<path fill="none" stroke="black" d="M294.54,-394.653C257.829,-439.614 202.137,-507.822 160.511,-558.803"/>
</g>
<!-- EventsController -->
<g id="node6" class="node"><title>EventsController</title>
<path fill="none" stroke="black" d="M352.792,-485.809C352.792,-485.809 437.792,-485.809 437.792,-485.809 443.792,-485.809 449.792,-491.809 449.792,-497.809 449.792,-497.809 449.792,-686.809 449.792,-686.809 449.792,-692.809 443.792,-698.809 437.792,-698.809 437.792,-698.809 352.792,-698.809 352.792,-698.809 346.792,-698.809 340.792,-692.809 340.792,-686.809 340.792,-686.809 340.792,-497.809 340.792,-497.809 340.792,-491.809 346.792,-485.809 352.792,-485.809"/>
<text text-anchor="middle" x="395.292" y="-683.609" font-family="Times,serif" font-size="14.00">EventsController</text>
<polyline fill="none" stroke="black" points="340.792,-675.809 449.792,-675.809 "/>
<text text-anchor="start" x="348.792" y="-660.609" font-family="Times,serif" font-size="14.00">create</text>
<text text-anchor="start" x="348.792" y="-645.609" font-family="Times,serif" font-size="14.00">destroy</text>
<text text-anchor="start" x="348.792" y="-630.609" font-family="Times,serif" font-size="14.00">edit</text>
<text text-anchor="start" x="348.792" y="-615.609" font-family="Times,serif" font-size="14.00">index</text>
<text text-anchor="start" x="348.792" y="-600.609" font-family="Times,serif" font-size="14.00">new</text>
<text text-anchor="start" x="348.792" y="-585.609" font-family="Times,serif" font-size="14.00">show</text>
<text text-anchor="start" x="348.792" y="-570.609" font-family="Times,serif" font-size="14.00">update</text>
<polyline fill="none" stroke="black" points="340.792,-562.809 449.792,-562.809 "/>
<polyline fill="none" stroke="black" points="340.792,-538.809 449.792,-538.809 "/>
<text text-anchor="start" x="348.792" y="-523.609" font-family="Times,serif" font-size="14.00">_layout</text>
<text text-anchor="start" x="348.792" y="-508.609" font-family="Times,serif" font-size="14.00">event_params</text>
<text text-anchor="start" x="348.792" y="-493.609" font-family="Times,serif" font-size="14.00">set_event</text>
</g>
<!-- ApplicationController&#45;&gt;EventsController -->
<g id="edge4" class="edge"><title>ApplicationController&#45;&gt;EventsController</title>
<path fill="none" stroke="black" d="M345.06,-394.681C351.647,-420.597 360.1,-453.854 368.186,-485.667"/>
</g>
<!-- VenuesController -->
<g id="node7" class="node"><title>VenuesController</title>
<path fill="none" stroke="black" d="M12,-277.968C12,-277.968 101,-277.968 101,-277.968 107,-277.968 113,-283.968 113,-289.968 113,-289.968 113,-478.968 113,-478.968 113,-484.968 107,-490.968 101,-490.968 101,-490.968 12,-490.968 12,-490.968 6,-490.968 0,-484.968 0,-478.968 0,-478.968 0,-289.968 0,-289.968 0,-283.968 6,-277.968 12,-277.968"/>
<text text-anchor="middle" x="56.5" y="-475.768" font-family="Times,serif" font-size="14.00">VenuesController</text>
<polyline fill="none" stroke="black" points="0,-467.968 113,-467.968 "/>
<text text-anchor="start" x="8" y="-452.768" font-family="Times,serif" font-size="14.00">create</text>
<text text-anchor="start" x="8" y="-437.768" font-family="Times,serif" font-size="14.00">destroy</text>
<text text-anchor="start" x="8" y="-422.768" font-family="Times,serif" font-size="14.00">edit</text>
<text text-anchor="start" x="8" y="-407.768" font-family="Times,serif" font-size="14.00">index</text>
<text text-anchor="start" x="8" y="-392.768" font-family="Times,serif" font-size="14.00">new</text>
<text text-anchor="start" x="8" y="-377.768" font-family="Times,serif" font-size="14.00">show</text>
<text text-anchor="start" x="8" y="-362.768" font-family="Times,serif" font-size="14.00">update</text>
<polyline fill="none" stroke="black" points="0,-354.968 113,-354.968 "/>
<polyline fill="none" stroke="black" points="0,-330.968 113,-330.968 "/>
<text text-anchor="start" x="8" y="-315.768" font-family="Times,serif" font-size="14.00">_layout</text>
<text text-anchor="start" x="8" y="-300.768" font-family="Times,serif" font-size="14.00">set_venue</text>
<text text-anchor="start" x="8" y="-285.768" font-family="Times,serif" font-size="14.00">venue_params</text>
</g>
<!-- ApplicationController&#45;&gt;VenuesController -->
<g id="edge5" class="edge"><title>ApplicationController&#45;&gt;VenuesController</title>
<path fill="none" stroke="black" d="M265.053,-356.572C218.351,-362.819 157.086,-371.014 113.058,-376.903"/>
</g>
</g>
</svg>
