<?xml version="1.0" encoding="UTF-8" standalone="no"?>
<!DOCTYPE svg PUBLIC "-//W3C//DTD SVG 1.1//EN"
 "http://www.w3.org/Graphics/SVG/1.1/DTD/svg11.dtd">
<!-- Generated by graphviz version 2.36.0 (20140111.2315)
 -->
<!-- Title: models_diagram Pages: 1 -->
<svg width="768pt" height="382pt"
 viewBox="0.00 0.00 768.00 382.00" xmlns="http://www.w3.org/2000/svg" xmlns:xlink="http://www.w3.org/1999/xlink">
<g id="graph0" class="graph" transform="scale(1 1) rotate(0) translate(4 378)">
<title>models_diagram</title>
<polygon fill="white" stroke="none" points="-4,4 -4,-378 764,-378 764,4 -4,4"/>
<!-- _diagram_info -->
<g id="node1" class="node"><title>_diagram_info</title>
<text text-anchor="start" x="8" y="-359.6" font-family="Times,serif" font-size="13.00">Models diagram</text>
<text text-anchor="start" x="8" y="-345.6" font-family="Times,serif" font-size="13.00">Date: Apr 26 2014 &#45; 11:03</text>
<text text-anchor="start" x="8" y="-331.6" font-family="Times,serif" font-size="13.00">Migration version: 20140407011556</text>
<text text-anchor="start" x="8" y="-317.6" font-family="Times,serif" font-size="13.00">Generated by RailRoady 1.1.1</text>
<text text-anchor="start" x="8" y="-303.6" font-family="Times,serif" font-size="13.00">http://railroady.prestonlee.com</text>
</g>
<!-- Schedule -->
<g id="node2" class="node"><title>Schedule</title>
<ellipse fill="none" stroke="black" cx="253" cy="-18" rx="42.3456" ry="18"/>
<text text-anchor="middle" x="253" y="-14.3" font-family="Times,serif" font-size="14.00">Schedule</text>
</g>
<!-- GroupVenue -->
<g id="node3" class="node"><title>GroupVenue</title>
<ellipse fill="none" stroke="black" cx="397" cy="-240" rx="55.3436" ry="18"/>
<text text-anchor="middle" x="397" y="-236.3" font-family="Times,serif" font-size="14.00">GroupVenue</text>
</g>
<!-- Venue -->
<g id="node4" class="node"><title>Venue</title>
<ellipse fill="none" stroke="black" cx="344" cy="-166" rx="33.1991" ry="18"/>
<text text-anchor="middle" x="344" y="-162.3" font-family="Times,serif" font-size="14.00">Venue</text>
</g>
<!-- Location -->
<g id="node5" class="node"><title>Location</title>
<ellipse fill="none" stroke="black" cx="356" cy="-18" rx="42.3701" ry="18"/>
<text text-anchor="middle" x="356" y="-14.3" font-family="Times,serif" font-size="14.00">Location</text>
</g>
<!-- Venue&#45;&gt;Location -->
<g id="edge3" class="edge"><title>Venue&#45;&gt;Location</title>
<path fill="none" stroke="#51ce48" d="M346.071,-139.8C348.263,-113.134 351.703,-71.2851 353.904,-44.5049"/>
<ellipse fill="none" stroke="#51ce48" cx="345.728" cy="-143.98" rx="4" ry="4"/>
<ellipse fill="#51ce48" stroke="#51ce48" cx="354.244" cy="-40.3644" rx="4" ry="4"/>
</g>
<!-- Event -->
<g id="node7" class="node"><title>Event</title>
<ellipse fill="none" stroke="black" cx="282" cy="-92" rx="31.2965" ry="18"/>
<text text-anchor="middle" x="282" y="-88.3" font-family="Times,serif" font-size="14.00">Event</text>
</g>
<!-- Venue&#45;&gt;Event -->
<g id="edge4" class="edge"><title>Venue&#45;&gt;Event</title>
<path fill="none" stroke="#9f2c51" d="M325.146,-143.105C317.876,-134.662 309.546,-124.989 302.158,-116.409"/>
<ellipse fill="none" stroke="#9f2c51" cx="327.937" cy="-146.346" rx="4.00002" ry="4.00002"/>
<polygon fill="#9f2c51" stroke="#9f2c51" points="301.952,-116.17 298.837,-105.656 298.689,-112.381 295.427,-108.592 295.427,-108.592 295.427,-108.592 298.689,-112.381 292.017,-111.529 301.952,-116.17 301.952,-116.17"/>
</g>
<!-- Occurrence -->
<g id="node6" class="node"><title>Occurrence</title>
<ellipse fill="none" stroke="black" cx="537" cy="-18" rx="51.0191" ry="18"/>
<text text-anchor="middle" x="537" y="-14.3" font-family="Times,serif" font-size="14.00">Occurrence</text>
</g>
<!-- Event&#45;&gt;Schedule -->
<g id="edge10" class="edge"><title>Event&#45;&gt;Schedule</title>
<path fill="none" stroke="#0c99a6" d="M272.18,-66.619C269.467,-59.884 266.51,-52.5412 263.747,-45.6829"/>
<ellipse fill="none" stroke="#0c99a6" cx="273.779" cy="-70.5904" rx="4.00001" ry="4.00001"/>
<polygon fill="#0c99a6" stroke="#0c99a6" points="263.627,-45.3845 264.065,-34.4274 261.759,-40.7466 259.891,-36.1086 259.891,-36.1086 259.891,-36.1086 261.759,-40.7466 255.717,-37.7899 263.627,-45.3845 263.627,-45.3845"/>
</g>
<!-- Event&#45;&gt;Location -->
<g id="edge8" class="edge"><title>Event&#45;&gt;Location</title>
<path fill="none" stroke="#d299a3" d="M303.177,-70.3956C312.857,-60.9767 324.318,-49.8254 334.087,-40.3212"/>
<ellipse fill="none" stroke="#d299a3" cx="300.2" cy="-73.2921" rx="4.00002" ry="4.00002"/>
<ellipse fill="#d299a3" stroke="#d299a3" cx="337.052" cy="-37.4359" rx="4.00002" ry="4.00002"/>
</g>
<!-- Event&#45;&gt;Occurrence -->
<g id="edge11" class="edge"><title>Event&#45;&gt;Occurrence</title>
<path fill="none" stroke="#4f50bd" d="M317.15,-81.0753C361.687,-68.5001 438.659,-46.7669 488.693,-32.6397"/>
<ellipse fill="none" stroke="#4f50bd" cx="313.139" cy="-82.2078" rx="4.00001" ry="4.00001"/>
<polygon fill="#4f50bd" stroke="#4f50bd" points="488.699,-32.6379 499.546,-34.2513 493.511,-31.2793 498.323,-29.9206 498.323,-29.9206 498.323,-29.9206 493.511,-31.2793 497.1,-25.5899 488.699,-32.6379 488.699,-32.6379"/>
</g>
<!-- Genre -->
<g id="node11" class="node"><title>Genre</title>
<ellipse fill="none" stroke="black" cx="97" cy="-18" rx="32.2457" ry="18"/>
<text text-anchor="middle" x="97" y="-14.3" font-family="Times,serif" font-size="14.00">Genre</text>
</g>
<!-- Event&#45;&gt;Genre -->
<g id="edge9" class="edge"><title>Event&#45;&gt;Genre</title>
<path fill="none" stroke="#db20a5" d="M246.993,-77.3756C214.139,-64.5892 165.251,-45.5626 132.302,-32.7391"/>
<polygon fill="#db20a5" stroke="#db20a5" points="247.345,-77.5127 255.032,-85.3333 252.005,-79.3262 256.664,-81.1397 256.664,-81.1397 256.664,-81.1397 252.005,-79.3262 258.297,-76.9461 247.345,-77.5127 247.345,-77.5127"/>
<polygon fill="#db20a5" stroke="#db20a5" points="131.942,-32.5992 124.255,-24.7787 127.283,-30.7858 122.623,-28.9723 122.623,-28.9723 122.623,-28.9723 127.283,-30.7858 120.991,-33.1659 131.942,-32.5992 131.942,-32.5992"/>
</g>
<!-- Group -->
<g id="node8" class="node"><title>Group</title>
<ellipse fill="none" stroke="black" cx="214" cy="-240" rx="33.2209" ry="18"/>
<text text-anchor="middle" x="214" y="-236.3" font-family="Times,serif" font-size="14.00">Group</text>
</g>
<!-- Group&#45;&gt;Venue -->
<g id="edge16" class="edge"><title>Group&#45;&gt;Venue</title>
<path fill="none" stroke="#9214a3" d="M245.238,-221.699C265.634,-210.403 292.168,-195.707 312.596,-184.393"/>
<polygon fill="#9214a3" stroke="#9214a3" points="245.096,-221.778 234.168,-222.686 240.722,-224.2 236.348,-226.623 236.348,-226.623 236.348,-226.623 240.722,-224.2 238.528,-230.559 245.096,-221.778 245.096,-221.778"/>
<polygon fill="#9214a3" stroke="#9214a3" points="312.761,-184.302 323.689,-183.393 317.135,-181.879 321.509,-179.457 321.509,-179.457 321.509,-179.457 317.135,-181.879 319.329,-175.52 312.761,-184.302 312.761,-184.302"/>
</g>
<!-- Group&#45;&gt;Event -->
<g id="edge15" class="edge"><title>Group&#45;&gt;Event</title>
<path fill="none" stroke="#ec7ac6" d="M225.28,-214.78C237.629,-188.266 257.351,-145.923 269.984,-118.8"/>
<ellipse fill="none" stroke="#ec7ac6" cx="223.489" cy="-218.626" rx="4.00002" ry="4.00002"/>
<polygon fill="#ec7ac6" stroke="#ec7ac6" points="270.068,-118.618 278.37,-111.453 272.179,-114.085 274.291,-109.553 274.291,-109.553 274.291,-109.553 272.179,-114.085 270.211,-107.653 270.068,-118.618 270.068,-118.618"/>
</g>
<!-- GroupGenre -->
<g id="node10" class="node"><title>GroupGenre</title>
<ellipse fill="none" stroke="black" cx="123" cy="-166" rx="54.3924" ry="18"/>
<text text-anchor="middle" x="123" y="-162.3" font-family="Times,serif" font-size="14.00">GroupGenre</text>
</g>
<!-- Group&#45;&gt;GroupGenre -->
<g id="edge13" class="edge"><title>Group&#45;&gt;GroupGenre</title>
<path fill="none" stroke="#4658cb" d="M189.635,-219.722C177.828,-210.381 163.581,-199.108 151.296,-189.388"/>
<ellipse fill="none" stroke="#4658cb" cx="192.884" cy="-222.293" rx="4.00002" ry="4.00002"/>
<polygon fill="#4658cb" stroke="#4658cb" points="151.001,-189.155 145.951,-179.421 147.08,-186.052 143.159,-182.95 143.159,-182.95 143.159,-182.95 147.08,-186.052 140.367,-186.479 151.001,-189.155 151.001,-189.155"/>
</g>
<!-- Group&#45;&gt;Genre -->
<g id="edge14" class="edge"><title>Group&#45;&gt;Genre</title>
<path fill="none" stroke="#6aae92" d="M208.035,-212.137C203.367,-193.574 195.988,-168.613 186,-148 166.813,-108.402 136.351,-67.3542 116.516,-42.4903"/>
<polygon fill="#6aae92" stroke="#6aae92" points="208.066,-212.262 206.035,-223.038 209.238,-217.122 210.41,-221.983 210.41,-221.983 210.41,-221.983 209.238,-217.122 214.784,-220.928 208.066,-212.262 208.066,-212.262"/>
<polygon fill="#6aae92" stroke="#6aae92" points="116.511,-42.4842 113.729,-31.877 113.369,-38.5942 110.228,-34.7042 110.228,-34.7042 110.228,-34.7042 113.369,-38.5942 106.727,-37.5314 116.511,-42.4842 116.511,-42.4842"/>
</g>
<!-- Person -->
<g id="node9" class="node"><title>Person</title>
<ellipse fill="none" stroke="black" cx="543" cy="-240" rx="34.1708" ry="18"/>
<text text-anchor="middle" x="543" y="-236.3" font-family="Times,serif" font-size="14.00">Person</text>
</g>
<!-- Genre&#45;&gt;Genre -->
<g id="edge20" class="edge"><title>Genre&#45;&gt;Genre</title>
<path fill="none" stroke="#cfa8f4" d="M135.376,-24.3525C142.221,-23.5255 147,-21.408 147,-18 147,-14.9546 143.183,-12.9397 137.487,-11.9553"/>
<ellipse fill="none" stroke="#cfa8f4" cx="131.263" cy="-24.5507" rx="4" ry="4"/>
<polygon fill="#cfa8f4" stroke="#cfa8f4" points="137.244,-11.9388 127.574,-6.76707 132.256,-11.5977 127.268,-11.2566 127.268,-11.2566 127.268,-11.2566 132.256,-11.5977 126.961,-15.7461 137.244,-11.9388 137.244,-11.9388"/>
<text text-anchor="middle" x="169.5" y="-14.3" font-family="Times,serif" font-size="14.00">children</text>
</g>
<!-- GroupMember -->
<g id="node12" class="node"><title>GroupMember</title>
<ellipse fill="none" stroke="black" cx="697" cy="-240" rx="63.5411" ry="18"/>
<text text-anchor="middle" x="697" y="-236.3" font-family="Times,serif" font-size="14.00">GroupMember</text>
</g>
<!-- ActiveRecord::Base -->
<g id="node13" class="node"><title>ActiveRecord::Base</title>
<ellipse fill="none" stroke="black" cx="313" cy="-335" rx="81.3646" ry="18"/>
<text text-anchor="middle" x="313" y="-331.3" font-family="Times,serif" font-size="14.00">ActiveRecord::Base</text>
</g>
<!-- ActiveRecord::Base&#45;&gt;Schedule -->
<g id="edge1" class="edge"><title>ActiveRecord::Base&#45;&gt;Schedule</title>
<path fill="none" stroke="black" d="M277.47,-318.796C231.262,-298.917 155,-265.714 143,-258 101.147,-231.097 79.483,-229.342 59,-184 52.413,-169.419 51.4419,-162.102 59,-148 93.2005,-84.1871 174.422,-46.5436 220.187,-29.6717"/>
</g>
<!-- ActiveRecord::Base&#45;&gt;GroupVenue -->
<g id="edge2" class="edge"><title>ActiveRecord::Base&#45;&gt;GroupVenue</title>
<path fill="none" stroke="black" d="M328.407,-316.942C343.658,-300.057 366.856,-274.374 381.973,-257.637"/>
</g>
<!-- ActiveRecord::Base&#45;&gt;Venue -->
<g id="edge5" class="edge"><title>ActiveRecord::Base&#45;&gt;Venue</title>
<path fill="none" stroke="black" d="M315.649,-316.878C319.114,-294.868 325.508,-255.496 332,-222 334.455,-209.335 337.568,-195.108 340.009,-184.297"/>
</g>
<!-- ActiveRecord::Base&#45;&gt;Location -->
<g id="edge6" class="edge"><title>ActiveRecord::Base&#45;&gt;Location</title>
<path fill="none" stroke="black" d="M378.916,-324.317C425.982,-313.237 481,-289.839 481,-241 481,-241 481,-241 481,-91 481,-50.8044 431.866,-32.7093 395.208,-24.8024"/>
</g>
<!-- ActiveRecord::Base&#45;&gt;Occurrence -->
<g id="edge7" class="edge"><title>ActiveRecord::Base&#45;&gt;Occurrence</title>
<path fill="none" stroke="black" d="M382.941,-325.839C469.327,-313.767 605,-287.42 605,-241 605,-241 605,-241 605,-91 605,-65.8973 582.883,-46.0089 563.875,-33.5521"/>
</g>
<!-- ActiveRecord::Base&#45;&gt;Event -->
<g id="edge12" class="edge"><title>ActiveRecord::Base&#45;&gt;Event</title>
<path fill="none" stroke="black" d="M310.771,-316.668C305.051,-272.202 289.907,-154.468 284.209,-110.175"/>
</g>
<!-- ActiveRecord::Base&#45;&gt;Group -->
<g id="edge17" class="edge"><title>ActiveRecord::Base&#45;&gt;Group</title>
<path fill="none" stroke="black" d="M295.301,-317.373C276.725,-299.923 247.787,-272.739 229.911,-255.947"/>
</g>
<!-- ActiveRecord::Base&#45;&gt;Person -->
<g id="edge18" class="edge"><title>ActiveRecord::Base&#45;&gt;Person</title>
<path fill="none" stroke="black" d="M369.978,-322.043C406.919,-312.965 455.364,-298.514 495,-278 506.4,-272.1 517.836,-263.42 526.684,-255.95"/>
</g>
<!-- ActiveRecord::Base&#45;&gt;GroupGenre -->
<g id="edge19" class="edge"><title>ActiveRecord::Base&#45;&gt;GroupGenre</title>
<path fill="none" stroke="black" d="M271.906,-319.351C241.384,-306.828 200.31,-286.322 172,-258 150.562,-236.553 136.074,-203.764 128.703,-183.955"/>
</g>
<!-- ActiveRecord::Base&#45;&gt;Genre -->
<g id="edge21" class="edge"><title>ActiveRecord::Base&#45;&gt;Genre</title>
<path fill="none" stroke="black" d="M279.324,-318.51C262.361,-311.076 241.338,-302.414 222,-296 126.338,-264.269 2,-341.787 2,-241 2,-241 2,-241 2,-91 2,-57.0607 40.988,-37.0573 69.0107,-27.0631"/>
</g>
<!-- ActiveRecord::Base&#45;&gt;GroupMember -->
<g id="edge22" class="edge"><title>ActiveRecord::Base&#45;&gt;GroupMember</title>
<path fill="none" stroke="black" d="M384.171,-326.337C447.03,-318.313 540.614,-303.279 619,-278 636.26,-272.434 654.63,-263.863 669.204,-256.372"/>
</g>
</g>
</svg>
