<?xml version="1.0" encoding="UTF-8" standalone="no"?>
<!DOCTYPE svg PUBLIC "-//W3C//DTD SVG 1.1//EN"
 "http://www.w3.org/Graphics/SVG/1.1/DTD/svg11.dtd">
<!-- Generated by graphviz version 2.36.0 (20140111.2315)
 -->
<!-- Title: models_diagram Pages: 1 -->
<svg width="895pt" height="1012pt"
 viewBox="0.00 0.00 895.00 1012.00" xmlns="http://www.w3.org/2000/svg" xmlns:xlink="http://www.w3.org/1999/xlink">
<g id="graph0" class="graph" transform="scale(1 1) rotate(0) translate(4 1008)">
<title>models_diagram</title>
<polygon fill="white" stroke="none" points="-4,4 -4,-1008 891,-1008 891,4 -4,4"/>
<!-- _diagram_info -->
<g id="node1" class="node"><title>_diagram_info</title>
<text text-anchor="start" x="47" y="-989.6" font-family="Times,serif" font-size="13.00">Models diagram</text>
<text text-anchor="start" x="47" y="-975.6" font-family="Times,serif" font-size="13.00">Date: Apr 26 2014 &#45; 11:03</text>
<text text-anchor="start" x="47" y="-961.6" font-family="Times,serif" font-size="13.00">Migration version: 20140407011556</text>
<text text-anchor="start" x="47" y="-947.6" font-family="Times,serif" font-size="13.00">Generated by RailRoady 1.1.1</text>
<text text-anchor="start" x="47" y="-933.6" font-family="Times,serif" font-size="13.00">http://railroady.prestonlee.com</text>
</g>
<!-- Schedule -->
<g id="node2" class="node"><title>Schedule</title>
<path fill="none" stroke="black" d="M251.5,-83C251.5,-83 358.5,-83 358.5,-83 364.5,-83 370.5,-89 370.5,-95 370.5,-95 370.5,-177 370.5,-177 370.5,-183 364.5,-189 358.5,-189 358.5,-189 251.5,-189 251.5,-189 245.5,-189 239.5,-183 239.5,-177 239.5,-177 239.5,-95 239.5,-95 239.5,-89 245.5,-83 251.5,-83"/>
<text text-anchor="middle" x="305" y="-173.8" font-family="Times,serif" font-size="14.00">Schedule</text>
<polyline fill="none" stroke="black" points="239.5,-166 370.5,-166 "/>
<text text-anchor="start" x="247.5" y="-150.8" font-family="Times,serif" font-size="14.00">id :integer</text>
<text text-anchor="start" x="247.5" y="-135.8" font-family="Times,serif" font-size="14.00">schedule :text</text>
<text text-anchor="start" x="247.5" y="-120.8" font-family="Times,serif" font-size="14.00">event_id :integer</text>
<text text-anchor="start" x="247.5" y="-105.8" font-family="Times,serif" font-size="14.00">created_at :datetime</text>
<text text-anchor="start" x="247.5" y="-90.8" font-family="Times,serif" font-size="14.00">updated_at :datetime</text>
</g>
<!-- GroupVenue -->
<g id="node3" class="node"><title>GroupVenue</title>
<path fill="none" stroke="black" d="M392.5,-751C392.5,-751 499.5,-751 499.5,-751 505.5,-751 511.5,-757 511.5,-763 511.5,-763 511.5,-845 511.5,-845 511.5,-851 505.5,-857 499.5,-857 499.5,-857 392.5,-857 392.5,-857 386.5,-857 380.5,-851 380.5,-845 380.5,-845 380.5,-763 380.5,-763 380.5,-757 386.5,-751 392.5,-751"/>
<text text-anchor="middle" x="446" y="-841.8" font-family="Times,serif" font-size="14.00">GroupVenue</text>
<polyline fill="none" stroke="black" points="380.5,-834 511.5,-834 "/>
<text text-anchor="start" x="388.5" y="-818.8" font-family="Times,serif" font-size="14.00">id :integer</text>
<text text-anchor="start" x="388.5" y="-803.8" font-family="Times,serif" font-size="14.00">venue_id :integer</text>
<text text-anchor="start" x="388.5" y="-788.8" font-family="Times,serif" font-size="14.00">group_id :integer</text>
<text text-anchor="start" x="388.5" y="-773.8" font-family="Times,serif" font-size="14.00">created_at :datetime</text>
<text text-anchor="start" x="388.5" y="-758.8" font-family="Times,serif" font-size="14.00">updated_at :datetime</text>
</g>
<!-- Venue -->
<g id="node4" class="node"><title>Venue</title>
<path fill="none" stroke="black" d="M354.5,-530.5C354.5,-530.5 461.5,-530.5 461.5,-530.5 467.5,-530.5 473.5,-536.5 473.5,-542.5 473.5,-542.5 473.5,-669.5 473.5,-669.5 473.5,-675.5 467.5,-681.5 461.5,-681.5 461.5,-681.5 354.5,-681.5 354.5,-681.5 348.5,-681.5 342.5,-675.5 342.5,-669.5 342.5,-669.5 342.5,-542.5 342.5,-542.5 342.5,-536.5 348.5,-530.5 354.5,-530.5"/>
<text text-anchor="middle" x="408" y="-666.3" font-family="Times,serif" font-size="14.00">Venue</text>
<polyline fill="none" stroke="black" points="342.5,-658.5 473.5,-658.5 "/>
<text text-anchor="start" x="350.5" y="-643.3" font-family="Times,serif" font-size="14.00">id :integer</text>
<text text-anchor="start" x="350.5" y="-628.3" font-family="Times,serif" font-size="14.00">name :string</text>
<text text-anchor="start" x="350.5" y="-613.3" font-family="Times,serif" font-size="14.00">phone :string</text>
<text text-anchor="start" x="350.5" y="-598.3" font-family="Times,serif" font-size="14.00">email :string</text>
<text text-anchor="start" x="350.5" y="-583.3" font-family="Times,serif" font-size="14.00">contact_name :string</text>
<text text-anchor="start" x="350.5" y="-568.3" font-family="Times,serif" font-size="14.00">description :text</text>
<text text-anchor="start" x="350.5" y="-553.3" font-family="Times,serif" font-size="14.00">created_at :datetime</text>
<text text-anchor="start" x="350.5" y="-538.3" font-family="Times,serif" font-size="14.00">updated_at :datetime</text>
</g>
<!-- Location -->
<g id="node5" class="node"><title>Location</title>
<path fill="none" stroke="black" d="M401,-0.5C401,-0.5 511,-0.5 511,-0.5 517,-0.5 523,-6.5 523,-12.5 523,-12.5 523,-259.5 523,-259.5 523,-265.5 517,-271.5 511,-271.5 511,-271.5 401,-271.5 401,-271.5 395,-271.5 389,-265.5 389,-259.5 389,-259.5 389,-12.5 389,-12.5 389,-6.5 395,-0.5 401,-0.5"/>
<text text-anchor="middle" x="456" y="-256.3" font-family="Times,serif" font-size="14.00">Location</text>
<polyline fill="none" stroke="black" points="389,-248.5 523,-248.5 "/>
<text text-anchor="start" x="397" y="-233.3" font-family="Times,serif" font-size="14.00">id :integer</text>
<text text-anchor="start" x="397" y="-218.3" font-family="Times,serif" font-size="14.00">address_one :string</text>
<text text-anchor="start" x="397" y="-203.3" font-family="Times,serif" font-size="14.00">address_two :string</text>
<text text-anchor="start" x="397" y="-188.3" font-family="Times,serif" font-size="14.00">city :string</text>
<text text-anchor="start" x="397" y="-173.3" font-family="Times,serif" font-size="14.00">state :string</text>
<text text-anchor="start" x="397" y="-158.3" font-family="Times,serif" font-size="14.00">postal_code :string</text>
<text text-anchor="start" x="397" y="-143.3" font-family="Times,serif" font-size="14.00">country :string</text>
<text text-anchor="start" x="397" y="-128.3" font-family="Times,serif" font-size="14.00">locatable_id :integer</text>
<text text-anchor="start" x="397" y="-113.3" font-family="Times,serif" font-size="14.00">locatable_type :string</text>
<text text-anchor="start" x="397" y="-98.3" font-family="Times,serif" font-size="14.00">md5hash :string</text>
<text text-anchor="start" x="397" y="-83.3" font-family="Times,serif" font-size="14.00">provider :string</text>
<text text-anchor="start" x="397" y="-68.3" font-family="Times,serif" font-size="14.00">precision :string</text>
<text text-anchor="start" x="397" y="-53.3" font-family="Times,serif" font-size="14.00">lat :decimal</text>
<text text-anchor="start" x="397" y="-38.3" font-family="Times,serif" font-size="14.00">lng :decimal</text>
<text text-anchor="start" x="397" y="-23.3" font-family="Times,serif" font-size="14.00">created_at :datetime</text>
<text text-anchor="start" x="397" y="-8.3" font-family="Times,serif" font-size="14.00">updated_at :datetime</text>
</g>
<!-- Venue&#45;&gt;Location -->
<g id="edge3" class="edge"><title>Venue&#45;&gt;Location</title>
<path fill="none" stroke="#cc75a1" d="M416.51,-522.032C423.381,-455.033 433.211,-359.193 441.344,-279.895"/>
<ellipse fill="none" stroke="#cc75a1" cx="416.067" cy="-526.347" rx="4" ry="4"/>
<ellipse fill="#cc75a1" stroke="#cc75a1" cx="441.768" cy="-275.764" rx="4" ry="4"/>
</g>
<!-- Event -->
<g id="node7" class="node"><title>Event</title>
<path fill="none" stroke="black" d="M239.5,-310.5C239.5,-310.5 388.5,-310.5 388.5,-310.5 394.5,-310.5 400.5,-316.5 400.5,-322.5 400.5,-322.5 400.5,-479.5 400.5,-479.5 400.5,-485.5 394.5,-491.5 388.5,-491.5 388.5,-491.5 239.5,-491.5 239.5,-491.5 233.5,-491.5 227.5,-485.5 227.5,-479.5 227.5,-479.5 227.5,-322.5 227.5,-322.5 227.5,-316.5 233.5,-310.5 239.5,-310.5"/>
<text text-anchor="middle" x="314" y="-476.3" font-family="Times,serif" font-size="14.00">Event</text>
<polyline fill="none" stroke="black" points="227.5,-468.5 400.5,-468.5 "/>
<text text-anchor="start" x="235.5" y="-453.3" font-family="Times,serif" font-size="14.00">id :integer</text>
<text text-anchor="start" x="235.5" y="-438.3" font-family="Times,serif" font-size="14.00">title :string</text>
<text text-anchor="start" x="235.5" y="-423.3" font-family="Times,serif" font-size="14.00">description :text</text>
<text text-anchor="start" x="235.5" y="-408.3" font-family="Times,serif" font-size="14.00">addmission_charge :decimal</text>
<text text-anchor="start" x="235.5" y="-393.3" font-family="Times,serif" font-size="14.00">started_at :datetime</text>
<text text-anchor="start" x="235.5" y="-378.3" font-family="Times,serif" font-size="14.00">expired_at :datetime</text>
<text text-anchor="start" x="235.5" y="-363.3" font-family="Times,serif" font-size="14.00">group_id :integer</text>
<text text-anchor="start" x="235.5" y="-348.3" font-family="Times,serif" font-size="14.00">venue_id :integer</text>
<text text-anchor="start" x="235.5" y="-333.3" font-family="Times,serif" font-size="14.00">created_at :datetime</text>
<text text-anchor="start" x="235.5" y="-318.3" font-family="Times,serif" font-size="14.00">updated_at :datetime</text>
</g>
<!-- Venue&#45;&gt;Event -->
<g id="edge4" class="edge"><title>Venue&#45;&gt;Event</title>
<path fill="none" stroke="#c05342" d="M369.965,-522.861C366.626,-515.65 363.224,-508.303 359.83,-500.973"/>
<ellipse fill="none" stroke="#c05342" cx="371.718" cy="-526.645" rx="4.00002" ry="4.00002"/>
<polygon fill="#c05342" stroke="#c05342" points="359.743,-500.784 359.624,-489.819 357.642,-496.247 355.541,-491.71 355.541,-491.71 355.541,-491.71 357.642,-496.247 351.457,-493.601 359.743,-500.784 359.743,-500.784"/>
</g>
<!-- Occurrence -->
<g id="node6" class="node"><title>Occurrence</title>
<path fill="none" stroke="black" d="M612.5,-68C612.5,-68 723.5,-68 723.5,-68 729.5,-68 735.5,-74 735.5,-80 735.5,-80 735.5,-192 735.5,-192 735.5,-198 729.5,-204 723.5,-204 723.5,-204 612.5,-204 612.5,-204 606.5,-204 600.5,-198 600.5,-192 600.5,-192 600.5,-80 600.5,-80 600.5,-74 606.5,-68 612.5,-68"/>
<text text-anchor="middle" x="668" y="-188.8" font-family="Times,serif" font-size="14.00">Occurrence</text>
<polyline fill="none" stroke="black" points="600.5,-181 735.5,-181 "/>
<text text-anchor="start" x="608.5" y="-165.8" font-family="Times,serif" font-size="14.00">id :integer</text>
<text text-anchor="start" x="608.5" y="-150.8" font-family="Times,serif" font-size="14.00">started_at :datetime</text>
<text text-anchor="start" x="608.5" y="-135.8" font-family="Times,serif" font-size="14.00">expired_at :datetime</text>
<text text-anchor="start" x="608.5" y="-120.8" font-family="Times,serif" font-size="14.00">generated :boolean</text>
<text text-anchor="start" x="608.5" y="-105.8" font-family="Times,serif" font-size="14.00">canceled_at :datetime</text>
<text text-anchor="start" x="608.5" y="-90.8" font-family="Times,serif" font-size="14.00">created_at :datetime</text>
<text text-anchor="start" x="608.5" y="-75.8" font-family="Times,serif" font-size="14.00">updated_at :datetime</text>
</g>
<!-- Event&#45;&gt;Schedule -->
<g id="edge10" class="edge"><title>Event&#45;&gt;Schedule</title>
<path fill="none" stroke="#31549b" d="M310.65,-302.12C309.473,-267.709 308.183,-230.006 307.133,-199.325"/>
<ellipse fill="none" stroke="#31549b" cx="310.791" cy="-306.228" rx="4" ry="4"/>
<polygon fill="#31549b" stroke="#31549b" points="307.129,-199.199 311.284,-189.051 306.958,-194.202 306.786,-189.205 306.786,-189.205 306.786,-189.205 306.958,-194.202 302.289,-189.359 307.129,-199.199 307.129,-199.199"/>
</g>
<!-- Event&#45;&gt;Location -->
<g id="edge8" class="edge"><title>Event&#45;&gt;Location</title>
<path fill="none" stroke="#3131b2" d="M366.294,-303.146C372.392,-291.852 378.688,-280.19 384.985,-268.529"/>
<ellipse fill="none" stroke="#3131b2" cx="364.372" cy="-306.706" rx="4.00002" ry="4.00002"/>
<ellipse fill="#3131b2" stroke="#3131b2" cx="387.003" cy="-264.79" rx="4.00002" ry="4.00002"/>
</g>
<!-- Event&#45;&gt;Occurrence -->
<g id="edge11" class="edge"><title>Event&#45;&gt;Occurrence</title>
<path fill="none" stroke="#2156ed" d="M407.856,-351.705C447.613,-329.545 493.538,-301.624 532,-272 555.459,-253.931 579.046,-232.108 599.835,-211.325"/>
<ellipse fill="none" stroke="#2156ed" cx="404.006" cy="-353.836" rx="4.00002" ry="4.00002"/>
<polygon fill="#2156ed" stroke="#2156ed" points="600.029,-211.129 610.264,-207.192 603.548,-207.577 607.067,-204.025 607.067,-204.025 607.067,-204.025 603.548,-207.577 603.87,-200.858 600.029,-211.129 600.029,-211.129"/>
</g>
<!-- Genre -->
<g id="node11" class="node"><title>Genre</title>
<path fill="none" stroke="black" d="M39.5,-75.5C39.5,-75.5 146.5,-75.5 146.5,-75.5 152.5,-75.5 158.5,-81.5 158.5,-87.5 158.5,-87.5 158.5,-184.5 158.5,-184.5 158.5,-190.5 152.5,-196.5 146.5,-196.5 146.5,-196.5 39.5,-196.5 39.5,-196.5 33.5,-196.5 27.5,-190.5 27.5,-184.5 27.5,-184.5 27.5,-87.5 27.5,-87.5 27.5,-81.5 33.5,-75.5 39.5,-75.5"/>
<text text-anchor="middle" x="93" y="-181.3" font-family="Times,serif" font-size="14.00">Genre</text>
<polyline fill="none" stroke="black" points="27.5,-173.5 158.5,-173.5 "/>
<text text-anchor="start" x="35.5" y="-158.3" font-family="Times,serif" font-size="14.00">id :integer</text>
<text text-anchor="start" x="35.5" y="-143.3" font-family="Times,serif" font-size="14.00">name :string</text>
<text text-anchor="start" x="35.5" y="-128.3" font-family="Times,serif" font-size="14.00">description :text</text>
<text text-anchor="start" x="35.5" y="-113.3" font-family="Times,serif" font-size="14.00">parent_id :integer</text>
<text text-anchor="start" x="35.5" y="-98.3" font-family="Times,serif" font-size="14.00">created_at :datetime</text>
<text text-anchor="start" x="35.5" y="-83.3" font-family="Times,serif" font-size="14.00">updated_at :datetime</text>
</g>
<!-- Event&#45;&gt;Genre -->
<g id="edge9" class="edge"><title>Event&#45;&gt;Genre</title>
<path fill="none" stroke="#b95cbd" d="M231.857,-302.246C204.505,-269.696 174.668,-234.188 149.685,-204.458"/>
<polygon fill="#b95cbd" stroke="#b95cbd" points="232.129,-302.57 235.117,-313.121 235.346,-306.398 238.562,-310.226 238.562,-310.226 238.562,-310.226 235.346,-306.398 242.008,-307.331 232.129,-302.57 232.129,-302.57"/>
<polygon fill="#b95cbd" stroke="#b95cbd" points="149.543,-204.288 146.555,-193.738 146.326,-200.461 143.109,-196.633 143.109,-196.633 143.109,-196.633 146.326,-200.461 139.664,-199.528 149.543,-204.288 149.543,-204.288"/>
</g>
<!-- Group -->
<g id="node8" class="node"><title>Group</title>
<path fill="none" stroke="black" d="M160,-743.5C160,-743.5 274,-743.5 274,-743.5 280,-743.5 286,-749.5 286,-755.5 286,-755.5 286,-852.5 286,-852.5 286,-858.5 280,-864.5 274,-864.5 274,-864.5 160,-864.5 160,-864.5 154,-864.5 148,-858.5 148,-852.5 148,-852.5 148,-755.5 148,-755.5 148,-749.5 154,-743.5 160,-743.5"/>
<text text-anchor="middle" x="217" y="-849.3" font-family="Times,serif" font-size="14.00">Group</text>
<polyline fill="none" stroke="black" points="148,-841.5 286,-841.5 "/>
<text text-anchor="start" x="156" y="-826.3" font-family="Times,serif" font-size="14.00">id :integer</text>
<text text-anchor="start" x="156" y="-811.3" font-family="Times,serif" font-size="14.00">name :string</text>
<text text-anchor="start" x="156" y="-796.3" font-family="Times,serif" font-size="14.00">closed :boolean</text>
<text text-anchor="start" x="156" y="-781.3" font-family="Times,serif" font-size="14.00">created_by_id :integer</text>
<text text-anchor="start" x="156" y="-766.3" font-family="Times,serif" font-size="14.00">created_at :datetime</text>
<text text-anchor="start" x="156" y="-751.3" font-family="Times,serif" font-size="14.00">updated_at :datetime</text>
</g>
<!-- Group&#45;&gt;Venue -->
<g id="edge16" class="edge"><title>Group&#45;&gt;Venue</title>
<path fill="none" stroke="#44d3a1" d="M282.133,-736.162C299.088,-718.763 317.47,-699.9 334.812,-682.104"/>
<polygon fill="#44d3a1" stroke="#44d3a1" points="282.063,-736.233 271.861,-740.255 278.574,-739.814 275.084,-743.395 275.084,-743.395 275.084,-743.395 278.574,-739.814 278.307,-746.536 282.063,-736.233 282.063,-736.233"/>
<polygon fill="#44d3a1" stroke="#44d3a1" points="335.194,-681.712 345.396,-677.691 338.683,-678.131 342.173,-674.55 342.173,-674.55 342.173,-674.55 338.683,-678.131 338.95,-671.41 335.194,-681.712 335.194,-681.712"/>
</g>
<!-- Group&#45;&gt;Event -->
<g id="edge15" class="edge"><title>Group&#45;&gt;Event</title>
<path fill="none" stroke="#b0f913" d="M233.349,-735.414C248.823,-671.443 272.243,-574.624 289.866,-501.772"/>
<ellipse fill="none" stroke="#b0f913" cx="232.358" cy="-739.511" rx="4.00001" ry="4.00001"/>
<polygon fill="#b0f913" stroke="#b0f913" points="289.961,-501.377 296.686,-492.716 291.137,-496.518 292.312,-491.658 292.312,-491.658 292.312,-491.658 291.137,-496.518 287.938,-490.6 289.961,-501.377 289.961,-501.377"/>
</g>
<!-- GroupGenre -->
<g id="node10" class="node"><title>GroupGenre</title>
<path fill="none" stroke="black" d="M78.5,-553C78.5,-553 185.5,-553 185.5,-553 191.5,-553 197.5,-559 197.5,-565 197.5,-565 197.5,-647 197.5,-647 197.5,-653 191.5,-659 185.5,-659 185.5,-659 78.5,-659 78.5,-659 72.5,-659 66.5,-653 66.5,-647 66.5,-647 66.5,-565 66.5,-565 66.5,-559 72.5,-553 78.5,-553"/>
<text text-anchor="middle" x="132" y="-643.8" font-family="Times,serif" font-size="14.00">GroupGenre</text>
<polyline fill="none" stroke="black" points="66.5,-636 197.5,-636 "/>
<text text-anchor="start" x="74.5" y="-620.8" font-family="Times,serif" font-size="14.00">id :integer</text>
<text text-anchor="start" x="74.5" y="-605.8" font-family="Times,serif" font-size="14.00">group_id :integer</text>
<text text-anchor="start" x="74.5" y="-590.8" font-family="Times,serif" font-size="14.00">genre_id :integer</text>
<text text-anchor="start" x="74.5" y="-575.8" font-family="Times,serif" font-size="14.00">created_at :datetime</text>
<text text-anchor="start" x="74.5" y="-560.8" font-family="Times,serif" font-size="14.00">updated_at :datetime</text>
</g>
<!-- Group&#45;&gt;GroupGenre -->
<g id="edge13" class="edge"><title>Group&#45;&gt;GroupGenre</title>
<path fill="none" stroke="#add2c3" d="M187.96,-736.036C178.449,-714.106 167.936,-689.864 158.614,-668.368"/>
<ellipse fill="none" stroke="#add2c3" cx="189.559" cy="-739.725" rx="4.00002" ry="4.00002"/>
<polygon fill="#add2c3" stroke="#add2c3" points="158.539,-668.197 158.689,-657.232 156.55,-663.61 154.561,-659.022 154.561,-659.022 154.561,-659.022 156.55,-663.61 150.432,-660.813 158.539,-668.197 158.539,-668.197"/>
</g>
<!-- Group&#45;&gt;Genre -->
<g id="edge14" class="edge"><title>Group&#45;&gt;Genre</title>
<path fill="none" stroke="#0d2659" d="M218.766,-733.414C219.078,-677.97 217.071,-598.55 206,-530 187.275,-414.061 145.565,-283.858 118.395,-206.236"/>
<polygon fill="#0d2659" stroke="#0d2659" points="218.766,-733.48 214.183,-743.442 218.724,-738.48 218.683,-743.479 218.683,-743.479 218.683,-743.479 218.724,-738.48 223.183,-743.517 218.766,-733.48 218.766,-733.48"/>
<polygon fill="#0d2659" stroke="#0d2659" points="118.313,-206.003 119.236,-195.076 116.652,-201.287 114.991,-196.571 114.991,-196.571 114.991,-196.571 116.652,-201.287 110.747,-198.065 118.313,-206.003 118.313,-206.003"/>
</g>
<!-- Person -->
<g id="node9" class="node"><title>Person</title>
<path fill="none" stroke="black" d="M580.5,-721C580.5,-721 687.5,-721 687.5,-721 693.5,-721 699.5,-727 699.5,-733 699.5,-733 699.5,-875 699.5,-875 699.5,-881 693.5,-887 687.5,-887 687.5,-887 580.5,-887 580.5,-887 574.5,-887 568.5,-881 568.5,-875 568.5,-875 568.5,-733 568.5,-733 568.5,-727 574.5,-721 580.5,-721"/>
<text text-anchor="middle" x="634" y="-871.8" font-family="Times,serif" font-size="14.00">Person</text>
<polyline fill="none" stroke="black" points="568.5,-864 699.5,-864 "/>
<text text-anchor="start" x="576.5" y="-848.8" font-family="Times,serif" font-size="14.00">id :integer</text>
<text text-anchor="start" x="576.5" y="-833.8" font-family="Times,serif" font-size="14.00">first_name :string</text>
<text text-anchor="start" x="576.5" y="-818.8" font-family="Times,serif" font-size="14.00">last_name :string</text>
<text text-anchor="start" x="576.5" y="-803.8" font-family="Times,serif" font-size="14.00">email :string</text>
<text text-anchor="start" x="576.5" y="-788.8" font-family="Times,serif" font-size="14.00">phone :string</text>
<text text-anchor="start" x="576.5" y="-773.8" font-family="Times,serif" font-size="14.00">skype :string</text>
<text text-anchor="start" x="576.5" y="-758.8" font-family="Times,serif" font-size="14.00">description :text</text>
<text text-anchor="start" x="576.5" y="-743.8" font-family="Times,serif" font-size="14.00">created_at :datetime</text>
<text text-anchor="start" x="576.5" y="-728.8" font-family="Times,serif" font-size="14.00">updated_at :datetime</text>
</g>
<!-- Genre&#45;&gt;Genre -->
<g id="edge20" class="edge"><title>Genre&#45;&gt;Genre</title>
<path fill="none" stroke="#9505eb" d="M165.774,-158.583C172.067,-153.792 176,-146.264 176,-136 176,-126.805 172.844,-119.806 167.662,-115.003"/>
<ellipse fill="none" stroke="#9505eb" cx="162.254" cy="-160.528" rx="4.00002" ry="4.00002"/>
<polygon fill="#9505eb" stroke="#9505eb" points="167.277,-114.767 161.106,-105.702 163.015,-112.152 158.753,-109.538 158.753,-109.538 158.753,-109.538 163.015,-112.152 156.4,-113.373 167.277,-114.767 167.277,-114.767"/>
<text text-anchor="middle" x="198.5" y="-132.3" font-family="Times,serif" font-size="14.00">children</text>
</g>
<!-- GroupMember -->
<g id="node12" class="node"><title>GroupMember</title>
<path fill="none" stroke="black" d="M768.5,-736C768.5,-736 875.5,-736 875.5,-736 881.5,-736 887.5,-742 887.5,-748 887.5,-748 887.5,-860 887.5,-860 887.5,-866 881.5,-872 875.5,-872 875.5,-872 768.5,-872 768.5,-872 762.5,-872 756.5,-866 756.5,-860 756.5,-860 756.5,-748 756.5,-748 756.5,-742 762.5,-736 768.5,-736"/>
<text text-anchor="middle" x="822" y="-856.8" font-family="Times,serif" font-size="14.00">GroupMember</text>
<polyline fill="none" stroke="black" points="756.5,-849 887.5,-849 "/>
<text text-anchor="start" x="764.5" y="-833.8" font-family="Times,serif" font-size="14.00">id :integer</text>
<text text-anchor="start" x="764.5" y="-818.8" font-family="Times,serif" font-size="14.00">group_id :integer</text>
<text text-anchor="start" x="764.5" y="-803.8" font-family="Times,serif" font-size="14.00">person_id :integer</text>
<text text-anchor="start" x="764.5" y="-788.8" font-family="Times,serif" font-size="14.00">position :integer</text>
<text text-anchor="start" x="764.5" y="-773.8" font-family="Times,serif" font-size="14.00">description :string</text>
<text text-anchor="start" x="764.5" y="-758.8" font-family="Times,serif" font-size="14.00">created_at :datetime</text>
<text text-anchor="start" x="764.5" y="-743.8" font-family="Times,serif" font-size="14.00">updated_at :datetime</text>
</g>
<!-- ActiveRecord::Base -->
<g id="node13" class="node"><title>ActiveRecord::Base</title>
<ellipse fill="none" stroke="black" cx="352" cy="-965" rx="81.3646" ry="18"/>
<text text-anchor="middle" x="352" y="-961.3" font-family="Times,serif" font-size="14.00">ActiveRecord::Base</text>
</g>
<!-- ActiveRecord::Base&#45;&gt;Schedule -->
<g id="edge1" class="edge"><title>ActiveRecord::Base&#45;&gt;Schedule</title>
<path fill="none" stroke="black" d="M319.798,-948.428C302.675,-940.697 281.067,-931.795 261,-926 190.364,-905.603 147.976,-943.711 100,-888 38.9683,-817.128 66.6064,-775.034 57,-682 50.0614,-614.802 37.3369,-594.631 57,-530 97.1843,-397.918 157.969,-389.779 230,-272 246.437,-245.124 263.585,-214.48 277.329,-189.188"/>
</g>
<!-- ActiveRecord::Base&#45;&gt;GroupVenue -->
<g id="edge2" class="edge"><title>ActiveRecord::Base&#45;&gt;GroupVenue</title>
<path fill="none" stroke="black" d="M362.06,-946.984C374.658,-925.674 396.822,-888.183 415.213,-857.076"/>
</g>
<!-- ActiveRecord::Base&#45;&gt;Venue -->
<g id="edge5" class="edge"><title>ActiveRecord::Base&#45;&gt;Venue</title>
<path fill="none" stroke="black" d="M351.937,-946.948C352.091,-906.916 354.237,-803.959 371,-720 373.506,-707.449 376.968,-694.35 380.777,-681.703"/>
</g>
<!-- ActiveRecord::Base&#45;&gt;Location -->
<g id="edge6" class="edge"><title>ActiveRecord::Base&#45;&gt;Location</title>
<path fill="none" stroke="black" d="M408.629,-952.023C445.557,-941.322 491.941,-921.914 520,-888 544.189,-858.765 540,-842.945 540,-805 540,-805 540,-805 540,-400 540,-357.101 529.733,-312.052 516.378,-271.6"/>
</g>
<!-- ActiveRecord::Base&#45;&gt;Occurrence -->
<g id="edge7" class="edge"><title>ActiveRecord::Base&#45;&gt;Occurrence</title>
<path fill="none" stroke="black" d="M425.658,-957.454C517.875,-947.75 668.56,-926.422 708,-888 735.179,-861.522 728,-842.945 728,-805 728,-805 728,-805 728,-400 728,-332.092 708.751,-256.737 692.059,-204.156"/>
</g>
<!-- ActiveRecord::Base&#45;&gt;Event -->
<g id="edge12" class="edge"><title>ActiveRecord::Base&#45;&gt;Event</title>
<path fill="none" stroke="black" d="M350.842,-946.874C346.271,-879.269 329.281,-627.996 320.055,-491.549"/>
</g>
<!-- ActiveRecord::Base&#45;&gt;Group -->
<g id="edge17" class="edge"><title>ActiveRecord::Base&#45;&gt;Group</title>
<path fill="none" stroke="black" d="M335.753,-947.127C325.335,-936.157 311.633,-921.444 300,-908 288.053,-894.194 275.522,-879.03 263.921,-864.682"/>
</g>
<!-- ActiveRecord::Base&#45;&gt;Person -->
<g id="edge18" class="edge"><title>ActiveRecord::Base&#45;&gt;Person</title>
<path fill="none" stroke="black" d="M422.072,-955.797C463.223,-948.368 514.7,-934.338 554,-908 562.84,-902.076 571.131,-894.855 578.776,-887.013"/>
</g>
<!-- ActiveRecord::Base&#45;&gt;GroupGenre -->
<g id="edge19" class="edge"><title>ActiveRecord::Base&#45;&gt;GroupGenre</title>
<path fill="none" stroke="black" d="M317.299,-948.611C300.451,-941.371 279.825,-932.845 261,-926 207.627,-906.592 173.228,-933.318 139,-888 89.2211,-822.093 102.203,-720.508 116.718,-659.229"/>
</g>
<!-- ActiveRecord::Base&#45;&gt;Genre -->
<g id="edge21" class="edge"><title>ActiveRecord::Base&#45;&gt;Genre</title>
<path fill="none" stroke="black" d="M320.314,-948.27C303.153,-940.397 281.351,-931.413 261,-926 171.028,-902.069 129.183,-944.255 55,-888 19.7391,-861.261 0,-849.253 0,-805 0,-805 0,-805 0,-400 0,-326.87 32.3562,-248.509 58.8983,-196.531"/>
</g>
<!-- ActiveRecord::Base&#45;&gt;GroupMember -->
<g id="edge22" class="edge"><title>ActiveRecord::Base&#45;&gt;GroupMember</title>
<path fill="none" stroke="black" d="M429.726,-959.706C527.939,-953.116 690.402,-937.992 742,-908 757.367,-899.068 770.832,-885.929 782.116,-872.003"/>
</g>
</g>
</svg>
